<svg xmlns="http://www.w3.org/2000/svg" width="22" height="21" fill="none"><path fill="#000" d="M.5 0h1.6v1.6H.5zM.5 1.6h1.6v1.6H.5zM.5 3.2h1.6v1.6H.5z"/><path fill="#000" d="M.5 4.8h1.6v1.6H.5zM.5 6.5h1.6v1.6H.5zM.5 8.1h1.6v1.6H.5zM.5 9.7h1.6v1.6H.5zM.5 11.3h1.6v1.6H.5zM.5 12.9h1.6v1.6H.5zM.5 14.5h1.6v1.6H.5zM.5 16.2h1.6v1.6H.5zM.5 17.8h1.6v1.6H.5z"/><path fill="#000" d="M.5 19.4h1.6V21H.5zM18.3 0v1.6h-1.6V0zM16.7 0v1.6H15V0zM15 0v1.6h-1.6V0zM13.4 0v1.6h-1.6V0zM11.8 0v1.6h-1.6V0zM10.2 0v1.6H8.6V0zM8.6 0v1.6H7V0zM7 0v1.6H5.4V0zM5.3 0v1.6H3.7V0zM3.7 0v1.6H2.1V0zM19.9 1.6v1.6h-1.6V1.6zM5.4 3.2v1.6H3.8V3.2zM5.4 1.6v1.6H3.8V1.6z"/><path fill="#000" d="M5.4 4.8v1.6H3.8V4.8zM16.7 3.3v1.6H15V3.3zM16.7 1.7v1.6H15V1.7zM16.7 4.9v1.6h-1.6V4.9zM13.5 3.2v1.6h-1.6V3.2zM13.4 1.6v1.6h-1.6V1.6z"/><path fill="#000" d="M13.5 4.8v1.6h-1.6V4.8zM16.6 6.5v1.6H15V6.5zM15 6.4V8h-1.6V6.4zM13.4 6.4V8h-1.6V6.4zM11.8 6.5V8h-1.6V6.5zM10.2 6.5V8H8.6V6.5zM8.5 6.5V8H7V6.5zM7 6.5v1.6H5.2V6.5z"/><path fill="#000" d="M5.3 6.4V8H3.7V6.4zM18.3 11.3V13h-1.6v-1.6zM16.7 11.4V13H15v-1.6zM15 11.3v1.6h-1.6v-1.6zM13.4 11.3v1.6h-1.6v-1.6zM11.8 11.3v1.6h-1.6v-1.6zM10.2 11.3V13H8.6v-1.6zM8.6 11.3V13H7v-1.6zM7 11.3V13H5.4v-1.6zM5.4 11.3v1.6H3.8v-1.6zM18.3 13v1.6h-1.6V13zM5.4 12.9v1.6H3.8v-1.6zM18.3 14.6v1.6h-1.6v-1.6z"/><path fill="#000" d="M5.4 14.5V16H3.8v-1.6zM18.2 16.2v1.6h-1.6v-1.6zM5.3 16.1v1.6H3.7v-1.6z"/><path fill="#000" d="M5.3 17.7v1.6H3.7v-1.6zM18.2 17.8v1.6h-1.6v-1.6zM19.9 19.4V21h-1.6v-1.6z"/><path fill="#000" d="M18.3 19.4V21h-1.6v-1.6zM16.6 19.4V21H15v-1.6zM15 19.3V21h-1.6v-1.6zM13.4 19.4V21h-1.6v-1.6zM11.8 19.4V21h-1.6v-1.6zM10.2 19.4V21H8.6v-1.6zM8.6 19.4V21H7v-1.6zM7 19.4V21H5.2v-1.6z"/><path fill="#000" d="M5.3 19.3V21H3.7v-1.6zM3.7 19.4V21H2.1v-1.6zM21.5 21h-1.6v-1.6h1.6zM21.5 19.4h-1.6v-1.6h1.6zM21.5 17.7h-1.6v-1.6h1.6z"/><path fill="#000" d="M21.5 16.1h-1.6v-1.6h1.6z"/><path fill="#000" d="M21.5 14.6h-1.6V13h1.6zM21.5 13h-1.6v-1.7h1.6zM21.5 11.3h-1.6V9.7h1.6zM21.5 9.7h-1.6V8h1.6zM21.5 8h-1.6V6.6h1.6zM21.5 6.4h-1.6V4.8h1.6z"/><path fill="#000" d="M21.5 4.9h-1.6V3.3h1.6z"/></svg>